M48
; DRILL file {KiCad 9.0.0} date 2025-05-29T16:34:11+0530
; FORMAT={-:-/ absolute / metric / decimal}
; #@! TF.CreationDate,2025-05-29T16:34:11+05:30
; #@! TF.GenerationSoftware,Kicad,Pcbnew,9.0.0
; #@! TF.FileFunction,Plated,1,2,PTH
FMAT,2
METRIC
; #@! TA.AperFunction,Plated,PTH,ViaDrill
T1C0.500
; #@! TA.AperFunction,Plated,PTH,ComponentDrill
T2C0.700
; #@! TA.AperFunction,Plated,PTH,ComponentDrill
T3C0.750
; #@! TA.AperFunction,Plated,PTH,ComponentDrill
T4C0.800
; #@! TA.AperFunction,Plated,PTH,ComponentDrill
T5C0.900
; #@! TA.AperFunction,Plated,PTH,ComponentDrill
T6C1.000
; #@! TA.AperFunction,Plated,PTH,ComponentDrill
T7C1.200
; #@! TA.AperFunction,Plated,PTH,ComponentDrill
T8C1.300
; #@! TA.AperFunction,Plated,PTH,ComponentDrill
T9C2.300
; #@! TA.AperFunction,Plated,PTH,ComponentDrill
T10C2.500
%
G90
G05
T1
X141.5Y-71.0
X141.5Y-76.5
X147.3Y-57.5
X147.325Y-70.9
X158.0Y-99.0
X167.0Y-99.1
X171.4Y-99.1
X171.525Y-137.125
X175.425Y-49.625
X175.69Y-45.985
X179.475Y-137.175
X180.7Y-99.1
X207.3Y-152.925
X211.8Y-152.875
T2
X106.1Y-145.09
X106.1Y-152.71
T3
X109.12Y-48.065
X110.65Y-47.365
X112.22Y-48.065
T4
X99.525Y-63.01
X99.525Y-68.09
X108.8Y-145.09
X108.8Y-152.71
X134.245Y-56.575
X138.095Y-50.725
X140.635Y-48.185
X143.175Y-50.725
X144.405Y-56.575
X172.32Y-104.536
X172.32Y-114.696
X172.32Y-123.078
X172.32Y-133.238
X172.32Y-141.62
X172.32Y-151.78
X180.589Y-107.556
X180.589Y-115.176
X185.768Y-77.24
X185.768Y-87.4
X190.749Y-107.556
X190.749Y-115.176
X193.044Y-77.24
X193.044Y-87.4
X196.091Y-107.556
X198.631Y-105.016
X198.631Y-110.096
X200.32Y-77.24
X200.32Y-87.4
X207.16Y-75.07
X207.16Y-82.69
X209.11Y-48.35
X209.7Y-75.07
X209.7Y-82.69
X210.2Y-94.475
X210.2Y-96.975
X211.65Y-48.35
X212.24Y-75.07
X212.24Y-82.69
X214.19Y-48.35
X214.78Y-75.07
X214.78Y-82.69
X216.73Y-48.35
X217.32Y-75.07
X217.32Y-82.69
X219.86Y-75.07
X219.86Y-82.69
X222.4Y-75.07
X222.4Y-82.69
X224.94Y-75.07
X224.94Y-82.69
T5
X93.54Y-53.56
X93.54Y-56.1
X93.54Y-58.64
X183.098Y-69.8
X185.638Y-69.8
X188.482Y-60.8
X190.466Y-69.8
X190.641Y-60.8
X192.8Y-60.8
X193.006Y-69.8
X194.959Y-60.8
X196.342Y-115.176
X197.835Y-69.8
X198.882Y-115.176
X200.375Y-69.8
T6
X97.15Y-77.565
X99.65Y-72.565
X102.15Y-77.565
X114.12Y-147.1
X116.66Y-147.1
X119.2Y-147.1
X126.7Y-49.15
X126.7Y-56.75
X129.19Y-69.35
X131.73Y-69.35
X134.27Y-69.35
X136.81Y-69.35
X156.003Y-54.937
X156.003Y-57.477
X156.003Y-60.017
X156.003Y-62.557
X156.003Y-65.097
X156.003Y-67.637
X156.003Y-70.177
X156.003Y-72.717
X156.003Y-75.257
X156.003Y-77.797
X156.003Y-80.337
X156.003Y-82.877
X156.003Y-85.417
X156.003Y-87.957
X156.003Y-90.497
X171.243Y-54.937
X171.243Y-57.477
X171.243Y-60.017
X171.243Y-62.557
X171.243Y-65.097
X171.243Y-67.637
X171.243Y-70.177
X171.243Y-72.717
X171.243Y-75.257
X171.243Y-77.797
X171.243Y-80.337
X171.243Y-82.877
X171.243Y-85.417
X171.243Y-87.957
X171.243Y-90.497
X187.4Y-52.7
X190.6Y-52.7
X193.8Y-52.7
X197.0Y-52.7
X209.852Y-124.54
X209.852Y-127.08
X209.852Y-129.62
X209.852Y-132.16
T7
X91.95Y-86.025
X91.95Y-91.025
X91.95Y-96.025
X91.95Y-111.025
X91.95Y-116.025
X91.95Y-121.025
X91.95Y-136.025
X91.95Y-141.025
X91.95Y-146.025
X96.95Y-86.025
X96.95Y-91.025
X96.95Y-96.025
X96.95Y-111.025
X96.95Y-116.025
X96.95Y-121.025
X96.95Y-136.025
X96.95Y-141.025
X96.95Y-146.025
X183.637Y-120.764
X184.05Y-50.9
X196.337Y-120.764
X200.35Y-50.9
T8
X159.7Y-103.366
X159.7Y-115.866
X159.7Y-121.908
X159.7Y-134.408
X159.7Y-140.45
X159.7Y-152.95
X164.7Y-103.366
X164.7Y-115.866
X164.7Y-121.908
X164.7Y-134.408
X164.7Y-140.45
X164.7Y-152.95
X184.083Y-127.868
X184.083Y-140.068
X185.02Y-150.3
X190.083Y-125.868
X190.1Y-150.3
X195.18Y-150.3
X196.083Y-127.868
X196.083Y-140.068
X222.472Y-60.29
X222.472Y-65.37
T9
X217.2Y-96.0
X220.2Y-91.3
X223.2Y-96.0
T10
X110.809Y-63.851
X110.809Y-138.849
X141.81Y-63.851
X141.81Y-138.85
M30
