%TF.GenerationSoftware,KiCad,Pcbnew,9.0.0*%
%TF.CreationDate,2025-05-29T16:34:15+05:30*%
%TF.ProjectId,PhyComm_V2,50687943-6f6d-46d5-9f56-322e6b696361,rev?*%
%TF.SameCoordinates,Original*%
%TF.FileFunction,Copper,L1,Top*%
%TF.FilePolarity,Positive*%
%FSLAX46Y46*%
G04 Gerber Fmt 4.6, Leading zero omitted, Abs format (unit mm)*
G04 Created by KiCad (PCBNEW 9.0.0) date 2025-05-29 16:34:15*
%MOMM*%
%LPD*%
G01*
G04 APERTURE LIST*
G04 Aperture macros list*
%AMRoundRect*
0 Rectangle with rounded corners*
0 $1 Rounding radius*
0 $2 $3 $4 $5 $6 $7 $8 $9 X,Y pos of 4 corners*
0 Add a 4 corners polygon primitive as box body*
4,1,4,$2,$3,$4,$5,$6,$7,$8,$9,$2,$3,0*
0 Add four circle primitives for the rounded corners*
1,1,$1+$1,$2,$3*
1,1,$1+$1,$4,$5*
1,1,$1+$1,$6,$7*
1,1,$1+$1,$8,$9*
0 Add four rect primitives between the rounded corners*
20,1,$1+$1,$2,$3,$4,$5,0*
20,1,$1+$1,$4,$5,$6,$7,0*
20,1,$1+$1,$6,$7,$8,$9,0*
20,1,$1+$1,$8,$9,$2,$3,0*%
G04 Aperture macros list end*
%TA.AperFunction,ComponentPad*%
%ADD10R,1.800000X1.800000*%
%TD*%
%TA.AperFunction,ComponentPad*%
%ADD11C,1.800000*%
%TD*%
%TA.AperFunction,ComponentPad*%
%ADD12RoundRect,0.250000X1.050000X-1.050000X1.050000X1.050000X-1.050000X1.050000X-1.050000X-1.050000X0*%
%TD*%
%TA.AperFunction,ComponentPad*%
%ADD13C,2.600000*%
%TD*%
%TA.AperFunction,ComponentPad*%
%ADD14C,1.600000*%
%TD*%
%TA.AperFunction,ComponentPad*%
%ADD15C,3.000000*%
%TD*%
%TA.AperFunction,ComponentPad*%
%ADD16RoundRect,0.249900X0.275100X0.400100X-0.275100X0.400100X-0.275100X-0.400100X0.275100X-0.400100X0*%
%TD*%
%TA.AperFunction,ComponentPad*%
%ADD17O,1.050000X1.300000*%
%TD*%
%TA.AperFunction,ComponentPad*%
%ADD18R,1.700000X1.700000*%
%TD*%
%TA.AperFunction,ComponentPad*%
%ADD19C,1.700000*%
%TD*%
%TA.AperFunction,ComponentPad*%
%ADD20O,1.900000X3.200000*%
%TD*%
%TA.AperFunction,ComponentPad*%
%ADD21O,1.600000X1.600000*%
%TD*%
%TA.AperFunction,ComponentPad*%
%ADD22RoundRect,0.248400X-0.651600X0.651600X-0.651600X-0.651600X0.651600X-0.651600X0.651600X0.651600X0*%
%TD*%
%TA.AperFunction,ComponentPad*%
%ADD23R,2.400000X2.400000*%
%TD*%
%TA.AperFunction,ComponentPad*%
%ADD24O,2.400000X2.400000*%
%TD*%
%TA.AperFunction,ComponentPad*%
%ADD25R,3.500000X3.500000*%
%TD*%
%TA.AperFunction,ComponentPad*%
%ADD26RoundRect,0.750000X0.750000X1.000000X-0.750000X1.000000X-0.750000X-1.000000X0.750000X-1.000000X0*%
%TD*%
%TA.AperFunction,ComponentPad*%
%ADD27RoundRect,0.875000X0.875000X0.875000X-0.875000X0.875000X-0.875000X-0.875000X0.875000X-0.875000X0*%
%TD*%
%TA.AperFunction,ComponentPad*%
%ADD28RoundRect,0.250000X-0.550000X0.550000X-0.550000X-0.550000X0.550000X-0.550000X0.550000X0.550000X0*%
%TD*%
%TA.AperFunction,ComponentPad*%
%ADD29RoundRect,0.250000X-1.050000X-1.050000X1.050000X-1.050000X1.050000X1.050000X-1.050000X1.050000X0*%
%TD*%
%TA.AperFunction,ComponentPad*%
%ADD30R,1.600000X1.600000*%
%TD*%
%TA.AperFunction,ComponentPad*%
%ADD31C,1.400000*%
%TD*%
%TA.AperFunction,ComponentPad*%
%ADD32O,1.400000X1.400000*%
%TD*%
%TA.AperFunction,ComponentPad*%
%ADD33R,1.500000X1.500000*%
%TD*%
%TA.AperFunction,ComponentPad*%
%ADD34C,1.500000*%
%TD*%
%TA.AperFunction,ComponentPad*%
%ADD35R,3.000000X3.000000*%
%TD*%
%TA.AperFunction,ComponentPad*%
%ADD36C,2.400000*%
%TD*%
%TA.AperFunction,ComponentPad*%
%ADD37RoundRect,0.250000X-1.000000X-1.000000X1.000000X-1.000000X1.000000X1.000000X-1.000000X1.000000X0*%
%TD*%
%TA.AperFunction,ComponentPad*%
%ADD38C,2.000000*%
%TD*%
%TA.AperFunction,ComponentPad*%
%ADD39R,2.000000X2.000000*%
%TD*%
%TA.AperFunction,ComponentPad*%
%ADD40R,1.600000X1.560000*%
%TD*%
%TA.AperFunction,ComponentPad*%
%ADD41C,1.560000*%
%TD*%
%TA.AperFunction,ViaPad*%
%ADD42C,1.200000*%
%TD*%
%TA.AperFunction,Conductor*%
%ADD43C,0.736600*%
%TD*%
%TA.AperFunction,Conductor*%
%ADD44C,0.889000*%
%TD*%
G04 APERTURE END LIST*
D10*
%TO.P,D4,1,K*%
%TO.N,Net-(D1-B)*%
X200375000Y-69800000D03*
D11*
%TO.P,D4,2,A*%
%TO.N,Net-(D2-A)*%
X197835000Y-69800000D03*
%TD*%
D12*
%TO.P,J4,1,Pin_1*%
%TO.N,Net-(J4-Pin_1)*%
X222472500Y-65370000D03*
D13*
%TO.P,J4,2,Pin_2*%
%TO.N,Net-(J4-Pin_2)*%
X222472500Y-60290000D03*
%TD*%
D14*
%TO.P,R5,1*%
%TO.N,+5V*%
X99525000Y-63010000D03*
%TO.P,R5,2*%
%TO.N,/A2*%
X99525000Y-68090000D03*
%TD*%
%TO.P,C1,1*%
%TO.N,+12V*%
X210200000Y-96975000D03*
%TO.P,C1,2*%
%TO.N,GND*%
X210200000Y-94475000D03*
%TD*%
D15*
%TO.P,DS1,*%
%TO.N,*%
X141810000Y-63850900D03*
X110809300Y-63850900D03*
X110809300Y-138849480D03*
X141810000Y-138850000D03*
%TD*%
D10*
%TO.P,D3,1,K*%
%TO.N,Net-(D1-G)*%
X193006500Y-69800000D03*
D11*
%TO.P,D3,2,A*%
%TO.N,Net-(D2-A)*%
X190466500Y-69800000D03*
%TD*%
D16*
%TO.P,U2,1,V_{CC}*%
%TO.N,+5V*%
X112220000Y-48065000D03*
D17*
%TO.P,U2,2,GND*%
%TO.N,GND*%
X110650000Y-47365000D03*
%TO.P,U2,3,V_{OUT}*%
%TO.N,/A0*%
X109120000Y-48065000D03*
%TD*%
D10*
%TO.P,D2,1,K*%
%TO.N,Net-(D1-R)*%
X185638000Y-69800000D03*
D11*
%TO.P,D2,2,A*%
%TO.N,Net-(D2-A)*%
X183098000Y-69800000D03*
%TD*%
D10*
%TO.P,D1,1,R*%
%TO.N,Net-(D1-R)*%
X188482000Y-60800000D03*
D11*
%TO.P,D1,2,A*%
%TO.N,Net-(D1-A)*%
X190641000Y-60800000D03*
%TO.P,D1,3,G*%
%TO.N,Net-(D1-G)*%
X192800000Y-60800000D03*
%TO.P,D1,4,B*%
%TO.N,Net-(D1-B)*%
X194959000Y-60800000D03*
%TD*%
D10*
%TO.P,D5,1,K*%
%TO.N,Net-(D5-K)*%
X198882200Y-115175600D03*
D11*
%TO.P,D5,2,A*%
%TO.N,Net-(D5-A)*%
X196342200Y-115175600D03*
%TD*%
D18*
%TO.P,J1,1,Pin_1*%
%TO.N,+5V*%
X209852000Y-132160000D03*
D19*
%TO.P,J1,2,Pin_2*%
%TO.N,/D7*%
X209852000Y-129620000D03*
%TO.P,J1,3,Pin_3*%
%TO.N,/D8*%
X209852000Y-127080000D03*
%TO.P,J1,4,Pin_4*%
%TO.N,GND*%
X209852000Y-124540000D03*
%TD*%
D20*
%TO.P,SW3,1,1*%
%TO.N,+5V*%
X159700000Y-152950000D03*
X159700000Y-140450000D03*
%TO.P,SW3,2,2*%
%TO.N,/D2*%
X164700000Y-152950000D03*
X164700000Y-140450000D03*
%TD*%
D14*
%TO.P,R6,1*%
%TO.N,GND*%
X172320000Y-104536000D03*
D21*
%TO.P,R6,2*%
%TO.N,/D3*%
X172320000Y-114696000D03*
%TD*%
D22*
%TO.P,U3,1,OUT*%
%TO.N,/A1*%
X93540000Y-53560000D03*
D11*
%TO.P,U3,2,GND*%
%TO.N,GND*%
X93540000Y-56100000D03*
%TO.P,U3,3,Vs*%
%TO.N,+5V*%
X93540000Y-58640000D03*
%TD*%
D23*
%TO.P,D6,1,K*%
%TO.N,+5V*%
X183637200Y-120763600D03*
D24*
%TO.P,D6,2,A*%
%TO.N,Net-(D5-K)*%
X196337200Y-120763600D03*
%TD*%
D20*
%TO.P,SW1,1,1*%
%TO.N,+5V*%
X159700000Y-115866000D03*
X159700000Y-103366000D03*
%TO.P,SW1,2,2*%
%TO.N,/D3*%
X164700000Y-115866000D03*
X164700000Y-103366000D03*
%TD*%
D25*
%TO.P,J2,1*%
%TO.N,+12V*%
X217200000Y-96000000D03*
D26*
%TO.P,J2,2*%
%TO.N,GND*%
X223200000Y-96000000D03*
D27*
%TO.P,J2,3*%
X220200000Y-91300000D03*
%TD*%
D14*
%TO.P,R8,1*%
%TO.N,GND*%
X172320000Y-141620000D03*
D21*
%TO.P,R8,2*%
%TO.N,/D2*%
X172320000Y-151780000D03*
%TD*%
D28*
%TO.P,U4,1,EN1\u002C2*%
%TO.N,/D9*%
X224940000Y-75070000D03*
D14*
%TO.P,U4,2,1A*%
%TO.N,/D10*%
X222400000Y-75070000D03*
%TO.P,U4,3,1Y*%
%TO.N,Net-(J4-Pin_1)*%
X219860000Y-75070000D03*
%TO.P,U4,4,GND*%
%TO.N,GND*%
X217320000Y-75070000D03*
%TO.P,U4,5,GND*%
X214780000Y-75070000D03*
%TO.P,U4,6,2Y*%
%TO.N,Net-(J4-Pin_2)*%
X212240000Y-75070000D03*
%TO.P,U4,7,2A*%
%TO.N,/D11*%
X209700000Y-75070000D03*
%TO.P,U4,8,VCC2*%
%TO.N,unconnected-(U4-VCC2-Pad8)*%
X207160000Y-75070000D03*
%TO.P,U4,9,EN3\u002C4*%
%TO.N,unconnected-(U4-EN3\u002C4-Pad9)*%
X207160000Y-82690000D03*
%TO.P,U4,10,3A*%
%TO.N,unconnected-(U4-3A-Pad10)*%
X209700000Y-82690000D03*
%TO.P,U4,11,3Y*%
%TO.N,unconnected-(U4-3Y-Pad11)*%
X212240000Y-82690000D03*
%TO.P,U4,12,GND*%
%TO.N,GND*%
X214780000Y-82690000D03*
%TO.P,U4,13,GND*%
X217320000Y-82690000D03*
%TO.P,U4,14,4Y*%
%TO.N,unconnected-(U4-4Y-Pad14)*%
X219860000Y-82690000D03*
%TO.P,U4,15,4A*%
%TO.N,unconnected-(U4-4A-Pad15)*%
X222400000Y-82690000D03*
%TO.P,U4,16,VCC1*%
%TO.N,+12V*%
X224940000Y-82690000D03*
%TD*%
D29*
%TO.P,Conn1,1,Pin_1*%
%TO.N,Net-(Conn1-Pin_1)*%
X185020000Y-150300000D03*
D13*
%TO.P,Conn1,2,Pin_2*%
%TO.N,Net-(Conn1-Pin_2)*%
X190100000Y-150300000D03*
%TO.P,Conn1,3,Pin_3*%
%TO.N,Net-(Conn1-Pin_3)*%
X195180000Y-150300000D03*
%TD*%
D30*
%TO.P,A1,1,D1/TX*%
%TO.N,unconnected-(A1-D1{slash}TX-Pad1)*%
X171242800Y-90497400D03*
D21*
%TO.P,A1,2,D0/RX*%
%TO.N,unconnected-(A1-D0{slash}RX-Pad2)*%
X171242800Y-87957400D03*
%TO.P,A1,3,~{RESET}*%
%TO.N,unconnected-(A1-~{RESET}-Pad3)*%
X171242800Y-85417400D03*
%TO.P,A1,4,GND*%
%TO.N,GND*%
X171242800Y-82877400D03*
%TO.P,A1,5,D2*%
%TO.N,/D2*%
X171242800Y-80337400D03*
%TO.P,A1,6,D3*%
%TO.N,/D3*%
X171242800Y-77797400D03*
%TO.P,A1,7,D4*%
%TO.N,/D4*%
X171242800Y-75257400D03*
%TO.P,A1,8,D5*%
%TO.N,/D5*%
X171242800Y-72717400D03*
%TO.P,A1,9,D6*%
%TO.N,/D6*%
X171242800Y-70177400D03*
%TO.P,A1,10,D7*%
%TO.N,/D7*%
X171242800Y-67637400D03*
%TO.P,A1,11,D8*%
%TO.N,/D8*%
X171242800Y-65097400D03*
%TO.P,A1,12,D9*%
%TO.N,/D9*%
X171242800Y-62557400D03*
%TO.P,A1,13,D10*%
%TO.N,/D10*%
X171242800Y-60017400D03*
%TO.P,A1,14,D11*%
%TO.N,/D11*%
X171242800Y-57477400D03*
%TO.P,A1,15,D12*%
%TO.N,/D12*%
X171242800Y-54937400D03*
%TO.P,A1,16,D13*%
%TO.N,/D13*%
X156002800Y-54937400D03*
%TO.P,A1,17,3V3*%
%TO.N,unconnected-(A1-3V3-Pad17)*%
X156002800Y-57477400D03*
%TO.P,A1,18,AREF*%
%TO.N,unconnected-(A1-AREF-Pad18)*%
X156002800Y-60017400D03*
%TO.P,A1,19,A0*%
%TO.N,/A0*%
X156002800Y-62557400D03*
%TO.P,A1,20,A1*%
%TO.N,/A1*%
X156002800Y-65097400D03*
%TO.P,A1,21,A2*%
%TO.N,/A2*%
X156002800Y-67637400D03*
%TO.P,A1,22,A3*%
%TO.N,/A3*%
X156002800Y-70177400D03*
%TO.P,A1,23,A4*%
%TO.N,/A4*%
X156002800Y-72717400D03*
%TO.P,A1,24,A5*%
%TO.N,/A5*%
X156002800Y-75257400D03*
%TO.P,A1,25,A6*%
%TO.N,/A6*%
X156002800Y-77797400D03*
%TO.P,A1,26,A7*%
%TO.N,/A7*%
X156002800Y-80337400D03*
%TO.P,A1,27,+5V*%
%TO.N,+5V*%
X156002800Y-82877400D03*
%TO.P,A1,28,~{RESET}*%
%TO.N,unconnected-(A1-~{RESET}-Pad28)*%
X156002800Y-85417400D03*
%TO.P,A1,29,GND*%
%TO.N,GND*%
X156002800Y-87957400D03*
%TO.P,A1,30,VIN*%
%TO.N,+12V*%
X156002800Y-90497400D03*
%TD*%
D31*
%TO.P,R11,1*%
%TO.N,+5V*%
X106100000Y-145090000D03*
D32*
%TO.P,R11,2*%
%TO.N,Net-(D7-K)*%
X106100000Y-152710000D03*
%TD*%
D33*
%TO.P,U1,1,VDD*%
%TO.N,+5V*%
X216730000Y-48350000D03*
D34*
%TO.P,U1,2,DATA*%
%TO.N,/D12*%
X214190000Y-48350000D03*
%TO.P,U1,3,NC*%
%TO.N,unconnected-(U1-NC-Pad3)*%
X211650000Y-48350000D03*
%TO.P,U1,4,GND*%
%TO.N,GND*%
X209110000Y-48350000D03*
%TD*%
D14*
%TO.P,R1,1*%
%TO.N,Net-(Q1-B)*%
X134245000Y-56575000D03*
D21*
%TO.P,R1,2*%
%TO.N,/D13*%
X144405000Y-56575000D03*
%TD*%
D35*
%TO.P,POT1,1,1*%
%TO.N,GND*%
X91950000Y-136025000D03*
D15*
%TO.P,POT1,2,2*%
X91950000Y-141025000D03*
%TO.P,POT1,3,3*%
X91950000Y-146025000D03*
%TO.P,POT1,4,4*%
%TO.N,+5V*%
X96950000Y-136025000D03*
%TO.P,POT1,5,5*%
%TO.N,/A7*%
X96950000Y-141025000D03*
%TO.P,POT1,6,6*%
%TO.N,GND*%
X96950000Y-146025000D03*
%TD*%
D36*
%TO.P,K1,11*%
%TO.N,Net-(Conn1-Pin_2)*%
X190083200Y-125867600D03*
%TO.P,K1,12*%
%TO.N,Net-(Conn1-Pin_3)*%
X196083200Y-140067600D03*
%TO.P,K1,14*%
%TO.N,Net-(Conn1-Pin_1)*%
X184083200Y-140067600D03*
D37*
%TO.P,K1,A1*%
%TO.N,+5V*%
X184083200Y-127867600D03*
D36*
%TO.P,K1,A2*%
%TO.N,Net-(D5-K)*%
X196083200Y-127867600D03*
%TD*%
D14*
%TO.P,R2,1*%
%TO.N,Net-(D1-R)*%
X185768000Y-77240000D03*
D21*
%TO.P,R2,2*%
%TO.N,/D11*%
X185768000Y-87400000D03*
%TD*%
D35*
%TO.P,POT2,1,1*%
%TO.N,GND*%
X91950000Y-111025000D03*
D15*
%TO.P,POT2,2,2*%
X91950000Y-116025000D03*
%TO.P,POT2,3,3*%
X91950000Y-121025000D03*
%TO.P,POT2,4,4*%
%TO.N,+5V*%
X96950000Y-111025000D03*
%TO.P,POT2,5,5*%
%TO.N,/A6*%
X96950000Y-116025000D03*
%TO.P,POT2,6,6*%
%TO.N,GND*%
X96950000Y-121025000D03*
%TD*%
D19*
%TO.P,U5,1,1*%
%TO.N,Net-(D2-A)*%
X187400000Y-52700000D03*
%TO.P,U5,2,2*%
%TO.N,+5V*%
X190600000Y-52700000D03*
%TO.P,U5,3,3*%
X193800000Y-52700000D03*
%TO.P,U5,4,4*%
%TO.N,Net-(D1-A)*%
X197000000Y-52700000D03*
D38*
%TO.P,U5,5,GND*%
%TO.N,unconnected-(U5-GND-Pad5)*%
X184050000Y-50900000D03*
%TO.P,U5,6,GND*%
%TO.N,unconnected-(U5-GND-Pad6)*%
X200350000Y-50900000D03*
%TD*%
D39*
%TO.P,BZ1,1,+*%
%TO.N,+5V*%
X126700000Y-56750000D03*
D38*
%TO.P,BZ1,2,-*%
%TO.N,Net-(BZ1--)*%
X126700000Y-49150000D03*
%TD*%
D18*
%TO.P,M1,1,PWM*%
%TO.N,/D6*%
X119200000Y-147100000D03*
D19*
%TO.P,M1,2,+*%
%TO.N,Net-(D7-K)*%
X116660000Y-147100000D03*
%TO.P,M1,3,-*%
%TO.N,GND*%
X114120000Y-147100000D03*
%TD*%
D18*
%TO.P,J3,1,Pin_1*%
%TO.N,GND*%
X136810000Y-69350000D03*
D19*
%TO.P,J3,2,Pin_2*%
%TO.N,+5V*%
X134270000Y-69350000D03*
%TO.P,J3,3,Pin_3*%
%TO.N,/A4*%
X131730000Y-69350000D03*
%TO.P,J3,4,Pin_4*%
%TO.N,/A5*%
X129190000Y-69350000D03*
%TD*%
D14*
%TO.P,R3,1*%
%TO.N,Net-(D1-G)*%
X193044000Y-77240000D03*
D21*
%TO.P,R3,2*%
%TO.N,/D10*%
X193044000Y-87400000D03*
%TD*%
D35*
%TO.P,POT3,1,1*%
%TO.N,GND*%
X91950000Y-86025000D03*
D15*
%TO.P,POT3,2,2*%
X91950000Y-91025000D03*
%TO.P,POT3,3,3*%
X91950000Y-96025000D03*
%TO.P,POT3,4,4*%
%TO.N,+5V*%
X96950000Y-86025000D03*
%TO.P,POT3,5,5*%
%TO.N,/A3*%
X96950000Y-91025000D03*
%TO.P,POT3,6,6*%
%TO.N,GND*%
X96950000Y-96025000D03*
%TD*%
D40*
%TO.P,RV4,1,1*%
%TO.N,unconnected-(RV4-Pad1)*%
X102150000Y-77565000D03*
D14*
%TO.P,RV4,2,2*%
%TO.N,/A2*%
X99650000Y-72565000D03*
D41*
%TO.P,RV4,3,3*%
%TO.N,GND*%
X97150000Y-77565000D03*
%TD*%
D20*
%TO.P,SW2,1,1*%
%TO.N,+5V*%
X159700000Y-134408000D03*
X159700000Y-121908000D03*
%TO.P,SW2,2,2*%
%TO.N,/D4*%
X164700000Y-134408000D03*
X164700000Y-121908000D03*
%TD*%
D14*
%TO.P,R7,1*%
%TO.N,GND*%
X172320000Y-123078000D03*
D21*
%TO.P,R7,2*%
%TO.N,/D4*%
X172320000Y-133238000D03*
%TD*%
D14*
%TO.P,R10,1*%
%TO.N,Net-(Q2-B)*%
X190749200Y-107555600D03*
D21*
%TO.P,R10,2*%
%TO.N,/D5*%
X180589200Y-107555600D03*
%TD*%
D14*
%TO.P,R4,1*%
%TO.N,Net-(D1-B)*%
X200320000Y-77240000D03*
D21*
%TO.P,R4,2*%
%TO.N,/D9*%
X200320000Y-87400000D03*
%TD*%
D14*
%TO.P,R9,1*%
%TO.N,Net-(D5-A)*%
X190749200Y-115175600D03*
D21*
%TO.P,R9,2*%
%TO.N,+5V*%
X180589200Y-115175600D03*
%TD*%
D30*
%TO.P,D7,1,K*%
%TO.N,Net-(D7-K)*%
X108800000Y-152710000D03*
D21*
%TO.P,D7,2,A*%
%TO.N,GND*%
X108800000Y-145090000D03*
%TD*%
D33*
%TO.P,Q2,1,C*%
%TO.N,Net-(D5-K)*%
X198631200Y-110095600D03*
D34*
%TO.P,Q2,2,B*%
%TO.N,Net-(Q2-B)*%
X196091200Y-107555600D03*
%TO.P,Q2,3,E*%
%TO.N,GND*%
X198631200Y-105015600D03*
%TD*%
D33*
%TO.P,Q1,1,C*%
%TO.N,Net-(BZ1--)*%
X138095000Y-50725000D03*
D34*
%TO.P,Q1,2,B*%
%TO.N,Net-(Q1-B)*%
X140635000Y-48185000D03*
%TO.P,Q1,3,E*%
%TO.N,GND*%
X143175000Y-50725000D03*
%TD*%
D42*
%TO.N,GND*%
X207300000Y-152925000D03*
X141500000Y-76500000D03*
X147300000Y-57500000D03*
X211800000Y-152875000D03*
X141500000Y-71000000D03*
X147325000Y-70900000D03*
%TO.N,+5V*%
X171525000Y-137125000D03*
X175689900Y-45985100D03*
X175425000Y-49625000D03*
X179475000Y-137175000D03*
%TO.N,+12V*%
X180700000Y-99100000D03*
X167000000Y-99100000D03*
X158000000Y-99000000D03*
X171400000Y-99100000D03*
%TD*%
D43*
%TO.N,GND*%
X147275000Y-57525000D02*
X147300000Y-57500000D01*
X147325000Y-70900000D02*
X147325000Y-58525000D01*
X211750000Y-152925000D02*
X211800000Y-152875000D01*
X207300000Y-152925000D02*
X211750000Y-152925000D01*
X141500000Y-71000000D02*
X141500000Y-76500000D01*
X147275000Y-58475000D02*
X147275000Y-57525000D01*
X147325000Y-58525000D02*
X147275000Y-58475000D01*
%TO.N,+5V*%
X175689900Y-45985100D02*
X175425000Y-46250000D01*
X171550000Y-137150000D02*
X179450000Y-137150000D01*
X175425000Y-46250000D02*
X175425000Y-49625000D01*
X179450000Y-137150000D02*
X179475000Y-137175000D01*
X171525000Y-137125000D02*
X171550000Y-137150000D01*
D44*
%TO.N,+12V*%
X158100000Y-99100000D02*
X167000000Y-99100000D01*
X171400000Y-99100000D02*
X180700000Y-99100000D01*
X158000000Y-99000000D02*
X158100000Y-99100000D01*
%TD*%
M02*
